<mxfile host="app.diagrams.net" agent="Mozilla/5.0 (Windows NT 10.0; Win64; x64) AppleWebKit/537.36 (KHTML, like Gecko) Chrome/133.0.0.0 Safari/537.36" version="26.0.16">
  <diagram name="第 1 页" id="cAeCDcuPgCNeJvF3vo-2">
    <mxGraphModel dx="1018" dy="604" grid="1" gridSize="10" guides="1" tooltips="1" connect="1" arrows="1" fold="1" page="1" pageScale="1" pageWidth="827" pageHeight="1169" math="0" shadow="0">
      <root>
        <mxCell id="0" />
        <mxCell id="1" parent="0" />
        <mxCell id="x8-BClLYdTzJmzPqAORM-2" value="请求A" style="rounded=0;whiteSpace=wrap;html=1;" vertex="1" parent="1">
          <mxGeometry x="40" y="80" width="120" height="60" as="geometry" />
        </mxCell>
        <mxCell id="x8-BClLYdTzJmzPqAORM-3" value="" style="endArrow=none;html=1;rounded=0;entryX=0.5;entryY=1;entryDx=0;entryDy=0;" edge="1" parent="1" target="x8-BClLYdTzJmzPqAORM-2">
          <mxGeometry width="50" height="50" relative="1" as="geometry">
            <mxPoint x="100" y="620" as="sourcePoint" />
            <mxPoint x="440" y="250" as="targetPoint" />
          </mxGeometry>
        </mxCell>
        <mxCell id="x8-BClLYdTzJmzPqAORM-4" value="请求B" style="rounded=0;whiteSpace=wrap;html=1;" vertex="1" parent="1">
          <mxGeometry x="250" y="80" width="120" height="60" as="geometry" />
        </mxCell>
        <mxCell id="x8-BClLYdTzJmzPqAORM-5" value="" style="endArrow=none;html=1;rounded=0;entryX=0.5;entryY=1;entryDx=0;entryDy=0;" edge="1" parent="1" target="x8-BClLYdTzJmzPqAORM-4">
          <mxGeometry width="50" height="50" relative="1" as="geometry">
            <mxPoint x="310" y="620" as="sourcePoint" />
            <mxPoint x="650" y="250" as="targetPoint" />
          </mxGeometry>
        </mxCell>
        <mxCell id="x8-BClLYdTzJmzPqAORM-6" value="redis" style="rounded=0;whiteSpace=wrap;html=1;" vertex="1" parent="1">
          <mxGeometry x="430" y="80" width="120" height="60" as="geometry" />
        </mxCell>
        <mxCell id="x8-BClLYdTzJmzPqAORM-7" value="" style="endArrow=none;html=1;rounded=0;entryX=0.5;entryY=1;entryDx=0;entryDy=0;" edge="1" parent="1" target="x8-BClLYdTzJmzPqAORM-6">
          <mxGeometry width="50" height="50" relative="1" as="geometry">
            <mxPoint x="490" y="620" as="sourcePoint" />
            <mxPoint x="830" y="250" as="targetPoint" />
          </mxGeometry>
        </mxCell>
        <mxCell id="x8-BClLYdTzJmzPqAORM-8" value="mysql" style="rounded=0;whiteSpace=wrap;html=1;" vertex="1" parent="1">
          <mxGeometry x="650" y="80" width="120" height="60" as="geometry" />
        </mxCell>
        <mxCell id="x8-BClLYdTzJmzPqAORM-9" value="" style="endArrow=none;html=1;rounded=0;entryX=0.5;entryY=1;entryDx=0;entryDy=0;" edge="1" parent="1" target="x8-BClLYdTzJmzPqAORM-8">
          <mxGeometry width="50" height="50" relative="1" as="geometry">
            <mxPoint x="710" y="620" as="sourcePoint" />
            <mxPoint x="1050" y="250" as="targetPoint" />
          </mxGeometry>
        </mxCell>
        <mxCell id="x8-BClLYdTzJmzPqAORM-10" value="" style="endArrow=classic;html=1;rounded=0;fillColor=#d5e8d4;strokeColor=#82b366;" edge="1" parent="1">
          <mxGeometry width="50" height="50" relative="1" as="geometry">
            <mxPoint x="100" y="210" as="sourcePoint" />
            <mxPoint x="490" y="210" as="targetPoint" />
          </mxGeometry>
        </mxCell>
        <mxCell id="x8-BClLYdTzJmzPqAORM-11" value="&lt;font style=&quot;color: rgb(255, 0, 0);&quot;&gt;A&amp;nbsp; 更新redis = 10&lt;/font&gt;&lt;div&gt;&lt;font style=&quot;color: rgb(255, 0, 0);&quot;&gt;&lt;br&gt;&lt;/font&gt;&lt;/div&gt;" style="text;html=1;align=center;verticalAlign=middle;resizable=0;points=[];autosize=1;strokeColor=none;fillColor=none;" vertex="1" parent="1">
          <mxGeometry x="340" y="188" width="110" height="40" as="geometry" />
        </mxCell>
        <mxCell id="x8-BClLYdTzJmzPqAORM-12" value="" style="endArrow=classic;html=1;rounded=0;fillColor=#d5e8d4;strokeColor=#82b366;" edge="1" parent="1">
          <mxGeometry width="50" height="50" relative="1" as="geometry">
            <mxPoint x="310" y="290" as="sourcePoint" />
            <mxPoint x="500" y="290" as="targetPoint" />
          </mxGeometry>
        </mxCell>
        <mxCell id="x8-BClLYdTzJmzPqAORM-13" value="B 更新缓存结果为20" style="text;html=1;align=center;verticalAlign=middle;resizable=0;points=[];autosize=1;strokeColor=none;fillColor=none;" vertex="1" parent="1">
          <mxGeometry x="349" y="260" width="130" height="30" as="geometry" />
        </mxCell>
        <mxCell id="x8-BClLYdTzJmzPqAORM-15" value="B 更新缓存Mysql为20" style="text;html=1;align=center;verticalAlign=middle;resizable=0;points=[];autosize=1;strokeColor=none;fillColor=none;" vertex="1" parent="1">
          <mxGeometry x="520" y="370" width="140" height="30" as="geometry" />
        </mxCell>
        <mxCell id="x8-BClLYdTzJmzPqAORM-16" value="" style="endArrow=classic;html=1;rounded=0;fillColor=#d5e8d4;strokeColor=#82b366;" edge="1" parent="1">
          <mxGeometry width="50" height="50" relative="1" as="geometry">
            <mxPoint x="320" y="400" as="sourcePoint" />
            <mxPoint x="710" y="400" as="targetPoint" />
          </mxGeometry>
        </mxCell>
        <mxCell id="x8-BClLYdTzJmzPqAORM-17" value="" style="endArrow=classic;html=1;rounded=0;fillColor=#d5e8d4;strokeColor=#82b366;" edge="1" parent="1">
          <mxGeometry width="50" height="50" relative="1" as="geometry">
            <mxPoint x="100" y="500" as="sourcePoint" />
            <mxPoint x="710" y="500" as="targetPoint" />
          </mxGeometry>
        </mxCell>
        <mxCell id="x8-BClLYdTzJmzPqAORM-18" value="A 更新mysql&amp;nbsp; = 10" style="text;html=1;align=center;verticalAlign=middle;resizable=0;points=[];autosize=1;strokeColor=none;fillColor=none;" vertex="1" parent="1">
          <mxGeometry x="550" y="468" width="120" height="30" as="geometry" />
        </mxCell>
        <mxCell id="x8-BClLYdTzJmzPqAORM-21" value="&lt;font style=&quot;font-size: 22px; color: rgb(255, 30, 92);&quot;&gt;最终的结果是 redis= 20&amp;nbsp; mysql = 10,缓存跟数据库不一致&lt;/font&gt;" style="text;html=1;align=center;verticalAlign=middle;whiteSpace=wrap;rounded=0;shadow=1;" vertex="1" parent="1">
          <mxGeometry x="65" y="650" width="660" height="30" as="geometry" />
        </mxCell>
        <mxCell id="x8-BClLYdTzJmzPqAORM-23" value="&lt;font style=&quot;color: rgb(90, 52, 255);&quot;&gt;时间线&lt;/font&gt;" style="text;html=1;align=center;verticalAlign=middle;whiteSpace=wrap;rounded=0;" vertex="1" parent="1">
          <mxGeometry x="10" y="198" width="60" height="412" as="geometry" />
        </mxCell>
        <mxCell id="x8-BClLYdTzJmzPqAORM-59" value="请求A" style="rounded=0;whiteSpace=wrap;html=1;" vertex="1" parent="1">
          <mxGeometry x="70" y="830" width="120" height="60" as="geometry" />
        </mxCell>
        <mxCell id="x8-BClLYdTzJmzPqAORM-60" value="" style="endArrow=none;html=1;rounded=0;entryX=0.5;entryY=1;entryDx=0;entryDy=0;" edge="1" parent="1" target="x8-BClLYdTzJmzPqAORM-59">
          <mxGeometry width="50" height="50" relative="1" as="geometry">
            <mxPoint x="130" y="1370" as="sourcePoint" />
            <mxPoint x="470" y="1000" as="targetPoint" />
          </mxGeometry>
        </mxCell>
        <mxCell id="x8-BClLYdTzJmzPqAORM-61" value="请求B" style="rounded=0;whiteSpace=wrap;html=1;" vertex="1" parent="1">
          <mxGeometry x="280" y="830" width="120" height="60" as="geometry" />
        </mxCell>
        <mxCell id="x8-BClLYdTzJmzPqAORM-62" value="" style="endArrow=none;html=1;rounded=0;entryX=0.5;entryY=1;entryDx=0;entryDy=0;" edge="1" parent="1" target="x8-BClLYdTzJmzPqAORM-61">
          <mxGeometry width="50" height="50" relative="1" as="geometry">
            <mxPoint x="340" y="1370" as="sourcePoint" />
            <mxPoint x="680" y="1000" as="targetPoint" />
          </mxGeometry>
        </mxCell>
        <mxCell id="x8-BClLYdTzJmzPqAORM-63" value="mysql" style="rounded=0;whiteSpace=wrap;html=1;" vertex="1" parent="1">
          <mxGeometry x="460" y="830" width="120" height="60" as="geometry" />
        </mxCell>
        <mxCell id="x8-BClLYdTzJmzPqAORM-64" value="" style="endArrow=none;html=1;rounded=0;entryX=0.5;entryY=1;entryDx=0;entryDy=0;" edge="1" parent="1" target="x8-BClLYdTzJmzPqAORM-63">
          <mxGeometry width="50" height="50" relative="1" as="geometry">
            <mxPoint x="520" y="1370" as="sourcePoint" />
            <mxPoint x="860" y="1000" as="targetPoint" />
          </mxGeometry>
        </mxCell>
        <mxCell id="x8-BClLYdTzJmzPqAORM-65" value="redis" style="rounded=0;whiteSpace=wrap;html=1;" vertex="1" parent="1">
          <mxGeometry x="680" y="830" width="120" height="60" as="geometry" />
        </mxCell>
        <mxCell id="x8-BClLYdTzJmzPqAORM-66" value="" style="endArrow=none;html=1;rounded=0;entryX=0.5;entryY=1;entryDx=0;entryDy=0;" edge="1" parent="1" target="x8-BClLYdTzJmzPqAORM-65">
          <mxGeometry width="50" height="50" relative="1" as="geometry">
            <mxPoint x="740" y="1370" as="sourcePoint" />
            <mxPoint x="1080" y="1000" as="targetPoint" />
          </mxGeometry>
        </mxCell>
        <mxCell id="x8-BClLYdTzJmzPqAORM-67" value="" style="endArrow=classic;html=1;rounded=0;fillColor=#d5e8d4;strokeColor=#82b366;" edge="1" parent="1">
          <mxGeometry width="50" height="50" relative="1" as="geometry">
            <mxPoint x="130" y="960" as="sourcePoint" />
            <mxPoint x="520" y="960" as="targetPoint" />
          </mxGeometry>
        </mxCell>
        <mxCell id="x8-BClLYdTzJmzPqAORM-68" value="&lt;font style=&quot;color: rgb(255, 0, 0);&quot;&gt;A&amp;nbsp; 更新 mysql = 10&lt;/font&gt;&lt;div&gt;&lt;font style=&quot;color: rgb(255, 0, 0);&quot;&gt;&lt;br&gt;&lt;/font&gt;&lt;/div&gt;" style="text;html=1;align=center;verticalAlign=middle;resizable=0;points=[];autosize=1;strokeColor=none;fillColor=none;" vertex="1" parent="1">
          <mxGeometry x="365" y="938" width="120" height="40" as="geometry" />
        </mxCell>
        <mxCell id="x8-BClLYdTzJmzPqAORM-69" value="" style="endArrow=classic;html=1;rounded=0;fillColor=#d5e8d4;strokeColor=#82b366;" edge="1" parent="1">
          <mxGeometry width="50" height="50" relative="1" as="geometry">
            <mxPoint x="340" y="1040" as="sourcePoint" />
            <mxPoint x="530" y="1040" as="targetPoint" />
          </mxGeometry>
        </mxCell>
        <mxCell id="x8-BClLYdTzJmzPqAORM-70" value="B 更新mysql = 20" style="text;html=1;align=center;verticalAlign=middle;resizable=0;points=[];autosize=1;strokeColor=none;fillColor=none;" vertex="1" parent="1">
          <mxGeometry x="384" y="1010" width="120" height="30" as="geometry" />
        </mxCell>
        <mxCell id="x8-BClLYdTzJmzPqAORM-71" value="B 更新缓存reids = 20" style="text;html=1;align=center;verticalAlign=middle;resizable=0;points=[];autosize=1;strokeColor=none;fillColor=none;" vertex="1" parent="1">
          <mxGeometry x="550" y="1120" width="140" height="30" as="geometry" />
        </mxCell>
        <mxCell id="x8-BClLYdTzJmzPqAORM-72" value="" style="endArrow=classic;html=1;rounded=0;fillColor=#d5e8d4;strokeColor=#82b366;" edge="1" parent="1">
          <mxGeometry width="50" height="50" relative="1" as="geometry">
            <mxPoint x="350" y="1150" as="sourcePoint" />
            <mxPoint x="740" y="1150" as="targetPoint" />
          </mxGeometry>
        </mxCell>
        <mxCell id="x8-BClLYdTzJmzPqAORM-73" value="" style="endArrow=classic;html=1;rounded=0;fillColor=#d5e8d4;strokeColor=#82b366;" edge="1" parent="1">
          <mxGeometry width="50" height="50" relative="1" as="geometry">
            <mxPoint x="130" y="1250" as="sourcePoint" />
            <mxPoint x="740" y="1250" as="targetPoint" />
          </mxGeometry>
        </mxCell>
        <mxCell id="x8-BClLYdTzJmzPqAORM-74" value="A 更新 redis&amp;nbsp; = 10" style="text;html=1;align=center;verticalAlign=middle;resizable=0;points=[];autosize=1;strokeColor=none;fillColor=none;" vertex="1" parent="1">
          <mxGeometry x="580" y="1218" width="120" height="30" as="geometry" />
        </mxCell>
        <mxCell id="x8-BClLYdTzJmzPqAORM-75" value="&lt;font style=&quot;font-size: 22px; color: rgb(255, 30, 92);&quot;&gt;最终的结果是 redis= 10 mysql = 20,缓存跟数据库不一致&lt;/font&gt;" style="text;html=1;align=center;verticalAlign=middle;whiteSpace=wrap;rounded=0;shadow=1;" vertex="1" parent="1">
          <mxGeometry x="95" y="1400" width="660" height="30" as="geometry" />
        </mxCell>
        <mxCell id="x8-BClLYdTzJmzPqAORM-76" value="请求A" style="rounded=0;whiteSpace=wrap;html=1;" vertex="1" parent="1">
          <mxGeometry x="60" y="1530" width="120" height="60" as="geometry" />
        </mxCell>
        <mxCell id="x8-BClLYdTzJmzPqAORM-77" value="" style="endArrow=none;html=1;rounded=0;entryX=0.5;entryY=1;entryDx=0;entryDy=0;" edge="1" parent="1" target="x8-BClLYdTzJmzPqAORM-76">
          <mxGeometry width="50" height="50" relative="1" as="geometry">
            <mxPoint x="120" y="2280" as="sourcePoint" />
            <mxPoint x="460" y="1700" as="targetPoint" />
          </mxGeometry>
        </mxCell>
        <mxCell id="x8-BClLYdTzJmzPqAORM-78" value="请求B" style="rounded=0;whiteSpace=wrap;html=1;" vertex="1" parent="1">
          <mxGeometry x="270" y="1530" width="120" height="60" as="geometry" />
        </mxCell>
        <mxCell id="x8-BClLYdTzJmzPqAORM-79" value="" style="endArrow=none;html=1;rounded=0;entryX=0.5;entryY=1;entryDx=0;entryDy=0;exitX=0.396;exitY=0.122;exitDx=0;exitDy=0;exitPerimeter=0;" edge="1" parent="1" target="x8-BClLYdTzJmzPqAORM-78" source="x8-BClLYdTzJmzPqAORM-92">
          <mxGeometry width="50" height="50" relative="1" as="geometry">
            <mxPoint x="330" y="2070" as="sourcePoint" />
            <mxPoint x="670" y="1700" as="targetPoint" />
          </mxGeometry>
        </mxCell>
        <mxCell id="x8-BClLYdTzJmzPqAORM-80" value="redis" style="rounded=0;whiteSpace=wrap;html=1;" vertex="1" parent="1">
          <mxGeometry x="450" y="1530" width="120" height="60" as="geometry" />
        </mxCell>
        <mxCell id="x8-BClLYdTzJmzPqAORM-81" value="" style="endArrow=none;html=1;rounded=0;entryX=0.5;entryY=1;entryDx=0;entryDy=0;exitX=0.684;exitY=0.122;exitDx=0;exitDy=0;exitPerimeter=0;" edge="1" parent="1" target="x8-BClLYdTzJmzPqAORM-80" source="x8-BClLYdTzJmzPqAORM-92">
          <mxGeometry width="50" height="50" relative="1" as="geometry">
            <mxPoint x="510" y="2070" as="sourcePoint" />
            <mxPoint x="850" y="1700" as="targetPoint" />
          </mxGeometry>
        </mxCell>
        <mxCell id="x8-BClLYdTzJmzPqAORM-82" value="mysql" style="rounded=0;whiteSpace=wrap;html=1;" vertex="1" parent="1">
          <mxGeometry x="670" y="1530" width="120" height="60" as="geometry" />
        </mxCell>
        <mxCell id="x8-BClLYdTzJmzPqAORM-83" value="" style="endArrow=none;html=1;rounded=0;entryX=0.5;entryY=1;entryDx=0;entryDy=0;exitX=1;exitY=0.25;exitDx=0;exitDy=0;" edge="1" parent="1" target="x8-BClLYdTzJmzPqAORM-82" source="x8-BClLYdTzJmzPqAORM-92">
          <mxGeometry width="50" height="50" relative="1" as="geometry">
            <mxPoint x="730" y="2070" as="sourcePoint" />
            <mxPoint x="1070" y="1700" as="targetPoint" />
          </mxGeometry>
        </mxCell>
        <mxCell id="x8-BClLYdTzJmzPqAORM-84" value="" style="endArrow=classic;html=1;rounded=0;fillColor=#d5e8d4;strokeColor=#82b366;" edge="1" parent="1">
          <mxGeometry width="50" height="50" relative="1" as="geometry">
            <mxPoint x="120" y="1660" as="sourcePoint" />
            <mxPoint x="510" y="1660" as="targetPoint" />
          </mxGeometry>
        </mxCell>
        <mxCell id="x8-BClLYdTzJmzPqAORM-85" value="&lt;font style=&quot;color: rgb(255, 0, 0);&quot;&gt;A&amp;nbsp; 删除redis&lt;/font&gt;" style="text;html=1;align=center;verticalAlign=middle;resizable=0;points=[];autosize=1;strokeColor=none;fillColor=none;" vertex="1" parent="1">
          <mxGeometry x="370" y="1630" width="90" height="30" as="geometry" />
        </mxCell>
        <mxCell id="x8-BClLYdTzJmzPqAORM-86" value="" style="endArrow=classic;html=1;rounded=0;fillColor=#d5e8d4;strokeColor=#82b366;" edge="1" parent="1">
          <mxGeometry width="50" height="50" relative="1" as="geometry">
            <mxPoint x="120" y="1740" as="sourcePoint" />
            <mxPoint x="730" y="1740" as="targetPoint" />
          </mxGeometry>
        </mxCell>
        <mxCell id="x8-BClLYdTzJmzPqAORM-87" value="B 更新mysql = 20" style="text;html=1;align=center;verticalAlign=middle;resizable=0;points=[];autosize=1;strokeColor=none;fillColor=none;" vertex="1" parent="1">
          <mxGeometry x="590" y="1700" width="120" height="30" as="geometry" />
        </mxCell>
        <mxCell id="x8-BClLYdTzJmzPqAORM-88" value="B 查询redis,没有数据" style="text;html=1;align=center;verticalAlign=middle;resizable=0;points=[];autosize=1;strokeColor=none;fillColor=none;" vertex="1" parent="1">
          <mxGeometry x="345" y="1780" width="140" height="30" as="geometry" />
        </mxCell>
        <mxCell id="x8-BClLYdTzJmzPqAORM-89" value="" style="endArrow=classic;html=1;rounded=0;fillColor=#d5e8d4;strokeColor=#82b366;" edge="1" parent="1">
          <mxGeometry width="50" height="50" relative="1" as="geometry">
            <mxPoint x="330" y="1810" as="sourcePoint" />
            <mxPoint x="510" y="1810" as="targetPoint" />
          </mxGeometry>
        </mxCell>
        <mxCell id="x8-BClLYdTzJmzPqAORM-90" value="" style="endArrow=classic;html=1;rounded=0;fillColor=#d5e8d4;strokeColor=#82b366;" edge="1" parent="1">
          <mxGeometry width="50" height="50" relative="1" as="geometry">
            <mxPoint x="335" y="1884.5" as="sourcePoint" />
            <mxPoint x="725" y="1884.5" as="targetPoint" />
          </mxGeometry>
        </mxCell>
        <mxCell id="x8-BClLYdTzJmzPqAORM-91" value="B 查询mysql" style="text;html=1;align=center;verticalAlign=middle;resizable=0;points=[];autosize=1;strokeColor=none;fillColor=none;" vertex="1" parent="1">
          <mxGeometry x="565" y="1850" width="90" height="30" as="geometry" />
        </mxCell>
        <mxCell id="x8-BClLYdTzJmzPqAORM-92" value="&lt;font style=&quot;font-size: 22px; color: rgb(255, 30, 92);&quot;&gt;最终的结果是 redis= 10 mysql = 20,缓存跟数据库不一致&lt;/font&gt;" style="text;html=1;align=center;verticalAlign=middle;whiteSpace=wrap;rounded=0;shadow=1;" vertex="1" parent="1">
          <mxGeometry x="60" y="2290" width="660" height="30" as="geometry" />
        </mxCell>
        <mxCell id="x8-BClLYdTzJmzPqAORM-93" value="" style="endArrow=classic;html=1;rounded=0;fillColor=#d5e8d4;strokeColor=#82b366;" edge="1" parent="1">
          <mxGeometry width="50" height="50" relative="1" as="geometry">
            <mxPoint x="335" y="1950" as="sourcePoint" />
            <mxPoint x="515" y="1950" as="targetPoint" />
          </mxGeometry>
        </mxCell>
        <mxCell id="x8-BClLYdTzJmzPqAORM-94" value="B 再更新redis" style="text;html=1;align=center;verticalAlign=middle;resizable=0;points=[];autosize=1;strokeColor=none;fillColor=none;" vertex="1" parent="1">
          <mxGeometry x="370" y="1920" width="100" height="30" as="geometry" />
        </mxCell>
        <mxCell id="x8-BClLYdTzJmzPqAORM-95" value="" style="endArrow=classic;html=1;rounded=0;fillColor=#d5e8d4;strokeColor=#FF0000;" edge="1" parent="1">
          <mxGeometry width="50" height="50" relative="1" as="geometry">
            <mxPoint x="115" y="2050" as="sourcePoint" />
            <mxPoint x="505" y="2050" as="targetPoint" />
          </mxGeometry>
        </mxCell>
        <mxCell id="x8-BClLYdTzJmzPqAORM-96" value="A 删除了Redis" style="text;html=1;align=center;verticalAlign=middle;resizable=0;points=[];autosize=1;strokeColor=none;fillColor=none;" vertex="1" parent="1">
          <mxGeometry x="180" y="2018" width="100" height="30" as="geometry" />
        </mxCell>
        <mxCell id="x8-BClLYdTzJmzPqAORM-97" value="" style="endArrow=classic;html=1;rounded=0;fillColor=#d5e8d4;strokeColor=#FF6666;" edge="1" parent="1">
          <mxGeometry width="50" height="50" relative="1" as="geometry">
            <mxPoint x="320" y="2090" as="sourcePoint" />
            <mxPoint x="710" y="2090" as="targetPoint" />
          </mxGeometry>
        </mxCell>
        <mxCell id="x8-BClLYdTzJmzPqAORM-98" value="B查询了mysql = 10" style="text;html=1;align=center;verticalAlign=middle;resizable=0;points=[];autosize=1;strokeColor=none;fillColor=none;" vertex="1" parent="1">
          <mxGeometry x="580" y="2058" width="130" height="30" as="geometry" />
        </mxCell>
        <mxCell id="x8-BClLYdTzJmzPqAORM-99" value="" style="endArrow=classic;html=1;rounded=0;fillColor=#d5e8d4;strokeColor=#FF0000;" edge="1" parent="1">
          <mxGeometry width="50" height="50" relative="1" as="geometry">
            <mxPoint x="325" y="2140" as="sourcePoint" />
            <mxPoint x="510" y="2140" as="targetPoint" />
          </mxGeometry>
        </mxCell>
        <mxCell id="x8-BClLYdTzJmzPqAORM-100" value="B 更新了redis = 10" style="text;html=1;align=center;verticalAlign=middle;resizable=0;points=[];autosize=1;strokeColor=none;fillColor=none;" vertex="1" parent="1">
          <mxGeometry x="370" y="2108" width="120" height="30" as="geometry" />
        </mxCell>
        <mxCell id="x8-BClLYdTzJmzPqAORM-101" value="" style="endArrow=classic;html=1;rounded=0;fillColor=#d5e8d4;strokeColor=#FF0000;" edge="1" parent="1">
          <mxGeometry width="50" height="50" relative="1" as="geometry">
            <mxPoint x="115" y="2200" as="sourcePoint" />
            <mxPoint x="730" y="2200" as="targetPoint" />
          </mxGeometry>
        </mxCell>
        <mxCell id="x8-BClLYdTzJmzPqAORM-102" value="A 跟新了mysql=20" style="text;html=1;align=center;verticalAlign=middle;resizable=0;points=[];autosize=1;strokeColor=none;fillColor=none;" vertex="1" parent="1">
          <mxGeometry x="540" y="2168" width="120" height="30" as="geometry" />
        </mxCell>
        <mxCell id="x8-BClLYdTzJmzPqAORM-106" value="请求A" style="rounded=0;whiteSpace=wrap;html=1;" vertex="1" parent="1">
          <mxGeometry x="60" y="2360" width="120" height="60" as="geometry" />
        </mxCell>
        <mxCell id="x8-BClLYdTzJmzPqAORM-107" value="" style="endArrow=none;html=1;rounded=0;entryX=0.5;entryY=1;entryDx=0;entryDy=0;" edge="1" parent="1" target="x8-BClLYdTzJmzPqAORM-106">
          <mxGeometry width="50" height="50" relative="1" as="geometry">
            <mxPoint x="120" y="3110" as="sourcePoint" />
            <mxPoint x="460" y="2530" as="targetPoint" />
          </mxGeometry>
        </mxCell>
        <mxCell id="x8-BClLYdTzJmzPqAORM-108" value="请求B" style="rounded=0;whiteSpace=wrap;html=1;" vertex="1" parent="1">
          <mxGeometry x="270" y="2360" width="120" height="60" as="geometry" />
        </mxCell>
        <mxCell id="x8-BClLYdTzJmzPqAORM-109" value="" style="endArrow=none;html=1;rounded=0;entryX=0.5;entryY=1;entryDx=0;entryDy=0;exitX=0.396;exitY=0.122;exitDx=0;exitDy=0;exitPerimeter=0;" edge="1" parent="1" target="x8-BClLYdTzJmzPqAORM-108">
          <mxGeometry width="50" height="50" relative="1" as="geometry">
            <mxPoint x="321" y="3124" as="sourcePoint" />
            <mxPoint x="670" y="2530" as="targetPoint" />
          </mxGeometry>
        </mxCell>
        <mxCell id="x8-BClLYdTzJmzPqAORM-110" value="redis" style="rounded=0;whiteSpace=wrap;html=1;" vertex="1" parent="1">
          <mxGeometry x="450" y="2360" width="120" height="60" as="geometry" />
        </mxCell>
        <mxCell id="x8-BClLYdTzJmzPqAORM-111" value="" style="endArrow=none;html=1;rounded=0;entryX=0.5;entryY=1;entryDx=0;entryDy=0;exitX=0.684;exitY=0.122;exitDx=0;exitDy=0;exitPerimeter=0;" edge="1" parent="1" target="x8-BClLYdTzJmzPqAORM-110">
          <mxGeometry width="50" height="50" relative="1" as="geometry">
            <mxPoint x="511" y="3124" as="sourcePoint" />
            <mxPoint x="850" y="2530" as="targetPoint" />
          </mxGeometry>
        </mxCell>
        <mxCell id="x8-BClLYdTzJmzPqAORM-112" value="" style="endArrow=none;html=1;rounded=0;entryX=0.5;entryY=1;entryDx=0;entryDy=0;exitX=1;exitY=0.25;exitDx=0;exitDy=0;" edge="1" parent="1">
          <mxGeometry width="50" height="50" relative="1" as="geometry">
            <mxPoint x="720" y="3127" as="sourcePoint" />
            <mxPoint x="730" y="2420" as="targetPoint" />
          </mxGeometry>
        </mxCell>
        <mxCell id="x8-BClLYdTzJmzPqAORM-113" value="" style="endArrow=classic;html=1;rounded=0;fillColor=#d5e8d4;strokeColor=#82b366;" edge="1" parent="1">
          <mxGeometry width="50" height="50" relative="1" as="geometry">
            <mxPoint x="120" y="2550" as="sourcePoint" />
            <mxPoint x="510" y="2550" as="targetPoint" />
          </mxGeometry>
        </mxCell>
        <mxCell id="x8-BClLYdTzJmzPqAORM-114" value="&lt;font style=&quot;color: rgb(255, 0, 0);&quot;&gt;A&amp;nbsp; 删除redis&lt;/font&gt;" style="text;html=1;align=center;verticalAlign=middle;resizable=0;points=[];autosize=1;strokeColor=none;fillColor=none;" vertex="1" parent="1">
          <mxGeometry x="360" y="2510" width="90" height="30" as="geometry" />
        </mxCell>
        <mxCell id="x8-BClLYdTzJmzPqAORM-115" value="" style="endArrow=classic;html=1;rounded=0;fillColor=#d5e8d4;strokeColor=#82b366;" edge="1" parent="1">
          <mxGeometry width="50" height="50" relative="1" as="geometry">
            <mxPoint x="110" y="2460" as="sourcePoint" />
            <mxPoint x="720" y="2460" as="targetPoint" />
          </mxGeometry>
        </mxCell>
        <mxCell id="x8-BClLYdTzJmzPqAORM-116" value="A 更新mysql = 20" style="text;html=1;align=center;verticalAlign=middle;resizable=0;points=[];autosize=1;strokeColor=none;fillColor=none;" vertex="1" parent="1">
          <mxGeometry x="570" y="2440" width="120" height="30" as="geometry" />
        </mxCell>
        <mxCell id="x8-BClLYdTzJmzPqAORM-117" value="B 查询redis,没有数据" style="text;html=1;align=center;verticalAlign=middle;resizable=0;points=[];autosize=1;strokeColor=none;fillColor=none;" vertex="1" parent="1">
          <mxGeometry x="345" y="2610" width="140" height="30" as="geometry" />
        </mxCell>
        <mxCell id="x8-BClLYdTzJmzPqAORM-118" value="" style="endArrow=classic;html=1;rounded=0;fillColor=#d5e8d4;strokeColor=#82b366;" edge="1" parent="1">
          <mxGeometry width="50" height="50" relative="1" as="geometry">
            <mxPoint x="330" y="2640" as="sourcePoint" />
            <mxPoint x="510" y="2640" as="targetPoint" />
          </mxGeometry>
        </mxCell>
        <mxCell id="x8-BClLYdTzJmzPqAORM-119" value="" style="endArrow=classic;html=1;rounded=0;fillColor=#d5e8d4;strokeColor=#82b366;" edge="1" parent="1">
          <mxGeometry width="50" height="50" relative="1" as="geometry">
            <mxPoint x="330" y="2690" as="sourcePoint" />
            <mxPoint x="720" y="2690" as="targetPoint" />
          </mxGeometry>
        </mxCell>
        <mxCell id="x8-BClLYdTzJmzPqAORM-120" value="B 查询mysql" style="text;html=1;align=center;verticalAlign=middle;resizable=0;points=[];autosize=1;strokeColor=none;fillColor=none;" vertex="1" parent="1">
          <mxGeometry x="545" y="2660" width="90" height="30" as="geometry" />
        </mxCell>
        <mxCell id="x8-BClLYdTzJmzPqAORM-121" value="" style="endArrow=classic;html=1;rounded=0;fillColor=#d5e8d4;strokeColor=#82b366;" edge="1" parent="1">
          <mxGeometry width="50" height="50" relative="1" as="geometry">
            <mxPoint x="330" y="2760" as="sourcePoint" />
            <mxPoint x="510" y="2760" as="targetPoint" />
          </mxGeometry>
        </mxCell>
        <mxCell id="x8-BClLYdTzJmzPqAORM-122" value="B 再更新redis" style="text;html=1;align=center;verticalAlign=middle;resizable=0;points=[];autosize=1;strokeColor=none;fillColor=none;" vertex="1" parent="1">
          <mxGeometry x="370" y="2720" width="100" height="30" as="geometry" />
        </mxCell>
        <mxCell id="x8-BClLYdTzJmzPqAORM-123" value="" style="endArrow=classic;html=1;rounded=0;fillColor=#d5e8d4;strokeColor=#FF0000;" edge="1" parent="1">
          <mxGeometry width="50" height="50" relative="1" as="geometry">
            <mxPoint x="130" y="2980" as="sourcePoint" />
            <mxPoint x="520" y="2980" as="targetPoint" />
          </mxGeometry>
        </mxCell>
        <mxCell id="x8-BClLYdTzJmzPqAORM-124" value="A 删除了Redis" style="text;html=1;align=center;verticalAlign=middle;resizable=0;points=[];autosize=1;strokeColor=none;fillColor=none;" vertex="1" parent="1">
          <mxGeometry x="400" y="2950" width="100" height="30" as="geometry" />
        </mxCell>
        <mxCell id="x8-BClLYdTzJmzPqAORM-127" value="" style="endArrow=classic;html=1;rounded=0;fillColor=#d5e8d4;strokeColor=#FF0000;" edge="1" parent="1">
          <mxGeometry width="50" height="50" relative="1" as="geometry">
            <mxPoint x="327.5" y="2923" as="sourcePoint" />
            <mxPoint x="512.5" y="2923" as="targetPoint" />
          </mxGeometry>
        </mxCell>
        <mxCell id="x8-BClLYdTzJmzPqAORM-128" value="B 查询 redis = 10" style="text;html=1;align=center;verticalAlign=middle;resizable=0;points=[];autosize=1;strokeColor=none;fillColor=none;" vertex="1" parent="1">
          <mxGeometry x="380" y="2880" width="120" height="30" as="geometry" />
        </mxCell>
        <mxCell id="x8-BClLYdTzJmzPqAORM-129" value="" style="endArrow=classic;html=1;rounded=0;fillColor=#d5e8d4;strokeColor=#FF0000;" edge="1" parent="1">
          <mxGeometry width="50" height="50" relative="1" as="geometry">
            <mxPoint x="117.5" y="2848" as="sourcePoint" />
            <mxPoint x="732.5" y="2848" as="targetPoint" />
          </mxGeometry>
        </mxCell>
        <mxCell id="x8-BClLYdTzJmzPqAORM-130" value="A 跟新了mysql=20" style="text;html=1;align=center;verticalAlign=middle;resizable=0;points=[];autosize=1;strokeColor=none;fillColor=none;" vertex="1" parent="1">
          <mxGeometry x="530" y="2810" width="120" height="30" as="geometry" />
        </mxCell>
        <mxCell id="x8-BClLYdTzJmzPqAORM-131" value="mysql" style="rounded=0;whiteSpace=wrap;html=1;" vertex="1" parent="1">
          <mxGeometry x="660" y="2360" width="120" height="60" as="geometry" />
        </mxCell>
        <mxCell id="x8-BClLYdTzJmzPqAORM-133" value="" style="endArrow=classic;html=1;rounded=0;fillColor=#d5e8d4;strokeColor=#FF0000;" edge="1" parent="1">
          <mxGeometry width="50" height="50" relative="1" as="geometry">
            <mxPoint x="325" y="3040" as="sourcePoint" />
            <mxPoint x="720" y="3040" as="targetPoint" />
          </mxGeometry>
        </mxCell>
        <mxCell id="x8-BClLYdTzJmzPqAORM-134" value="B 查询了mysql=20" style="text;html=1;align=center;verticalAlign=middle;resizable=0;points=[];autosize=1;strokeColor=none;fillColor=none;" vertex="1" parent="1">
          <mxGeometry x="515" y="3020" width="120" height="30" as="geometry" />
        </mxCell>
        <mxCell id="x8-BClLYdTzJmzPqAORM-135" value="" style="endArrow=classic;html=1;rounded=0;fillColor=#d5e8d4;strokeColor=#FF0000;" edge="1" parent="1">
          <mxGeometry width="50" height="50" relative="1" as="geometry">
            <mxPoint x="319" y="3100" as="sourcePoint" />
            <mxPoint x="504" y="3100" as="targetPoint" />
          </mxGeometry>
        </mxCell>
        <mxCell id="x8-BClLYdTzJmzPqAORM-136" value="B 跟新redis = 20" style="text;html=1;align=center;verticalAlign=middle;resizable=0;points=[];autosize=1;strokeColor=none;fillColor=none;" vertex="1" parent="1">
          <mxGeometry x="330" y="3060" width="110" height="30" as="geometry" />
        </mxCell>
        <mxCell id="x8-BClLYdTzJmzPqAORM-164" value="请求A" style="rounded=0;whiteSpace=wrap;html=1;" vertex="1" parent="1">
          <mxGeometry x="45" y="3190" width="120" height="60" as="geometry" />
        </mxCell>
        <mxCell id="x8-BClLYdTzJmzPqAORM-165" value="" style="endArrow=none;html=1;rounded=0;entryX=0.5;entryY=1;entryDx=0;entryDy=0;" edge="1" parent="1" target="x8-BClLYdTzJmzPqAORM-164">
          <mxGeometry width="50" height="50" relative="1" as="geometry">
            <mxPoint x="105" y="3940" as="sourcePoint" />
            <mxPoint x="445" y="3360" as="targetPoint" />
          </mxGeometry>
        </mxCell>
        <mxCell id="x8-BClLYdTzJmzPqAORM-166" value="请求B" style="rounded=0;whiteSpace=wrap;html=1;" vertex="1" parent="1">
          <mxGeometry x="255" y="3190" width="120" height="60" as="geometry" />
        </mxCell>
        <mxCell id="x8-BClLYdTzJmzPqAORM-167" value="" style="endArrow=none;html=1;rounded=0;entryX=0.5;entryY=1;entryDx=0;entryDy=0;" edge="1" parent="1" target="x8-BClLYdTzJmzPqAORM-166">
          <mxGeometry width="50" height="50" relative="1" as="geometry">
            <mxPoint x="306" y="4020" as="sourcePoint" />
            <mxPoint x="655" y="3360" as="targetPoint" />
          </mxGeometry>
        </mxCell>
        <mxCell id="x8-BClLYdTzJmzPqAORM-168" value="redis" style="rounded=0;whiteSpace=wrap;html=1;" vertex="1" parent="1">
          <mxGeometry x="435" y="3190" width="120" height="60" as="geometry" />
        </mxCell>
        <mxCell id="x8-BClLYdTzJmzPqAORM-169" value="" style="endArrow=none;html=1;rounded=0;entryX=0.5;entryY=1;entryDx=0;entryDy=0;" edge="1" parent="1" target="x8-BClLYdTzJmzPqAORM-168">
          <mxGeometry width="50" height="50" relative="1" as="geometry">
            <mxPoint x="495" y="4010" as="sourcePoint" />
            <mxPoint x="835" y="3360" as="targetPoint" />
          </mxGeometry>
        </mxCell>
        <mxCell id="x8-BClLYdTzJmzPqAORM-170" value="" style="endArrow=none;html=1;rounded=0;entryX=0.5;entryY=1;entryDx=0;entryDy=0;exitX=1;exitY=0.25;exitDx=0;exitDy=0;" edge="1" parent="1">
          <mxGeometry width="50" height="50" relative="1" as="geometry">
            <mxPoint x="705" y="3957" as="sourcePoint" />
            <mxPoint x="715" y="3250" as="targetPoint" />
          </mxGeometry>
        </mxCell>
        <mxCell id="x8-BClLYdTzJmzPqAORM-171" value="" style="endArrow=classic;html=1;rounded=0;fillColor=#d5e8d4;strokeColor=#82b366;" edge="1" parent="1">
          <mxGeometry width="50" height="50" relative="1" as="geometry">
            <mxPoint x="105" y="3380" as="sourcePoint" />
            <mxPoint x="495" y="3380" as="targetPoint" />
          </mxGeometry>
        </mxCell>
        <mxCell id="x8-BClLYdTzJmzPqAORM-172" value="&lt;font style=&quot;color: rgb(255, 0, 0);&quot;&gt;A 再次 删除redis&lt;/font&gt;" style="text;html=1;align=center;verticalAlign=middle;resizable=0;points=[];autosize=1;strokeColor=none;fillColor=none;" vertex="1" parent="1">
          <mxGeometry x="330" y="3350" width="110" height="30" as="geometry" />
        </mxCell>
        <mxCell id="x8-BClLYdTzJmzPqAORM-173" value="" style="endArrow=classic;html=1;rounded=0;fillColor=#d5e8d4;strokeColor=#82b366;" edge="1" parent="1">
          <mxGeometry width="50" height="50" relative="1" as="geometry">
            <mxPoint x="100" y="3340" as="sourcePoint" />
            <mxPoint x="710" y="3340" as="targetPoint" />
          </mxGeometry>
        </mxCell>
        <mxCell id="x8-BClLYdTzJmzPqAORM-174" value="A 更新mysql = 20" style="text;html=1;align=center;verticalAlign=middle;resizable=0;points=[];autosize=1;strokeColor=none;fillColor=none;" vertex="1" parent="1">
          <mxGeometry x="540" y="3310" width="120" height="30" as="geometry" />
        </mxCell>
        <mxCell id="x8-BClLYdTzJmzPqAORM-175" value="B 查询redis,没有数据" style="text;html=1;align=center;verticalAlign=middle;resizable=0;points=[];autosize=1;strokeColor=none;fillColor=none;" vertex="1" parent="1">
          <mxGeometry x="344" y="3400" width="140" height="30" as="geometry" />
        </mxCell>
        <mxCell id="x8-BClLYdTzJmzPqAORM-176" value="" style="endArrow=classic;html=1;rounded=0;fillColor=#d5e8d4;strokeColor=#82b366;" edge="1" parent="1">
          <mxGeometry width="50" height="50" relative="1" as="geometry">
            <mxPoint x="315" y="3430" as="sourcePoint" />
            <mxPoint x="495" y="3430" as="targetPoint" />
          </mxGeometry>
        </mxCell>
        <mxCell id="x8-BClLYdTzJmzPqAORM-177" value="" style="endArrow=classic;html=1;rounded=0;fillColor=#d5e8d4;strokeColor=#82b366;" edge="1" parent="1">
          <mxGeometry width="50" height="50" relative="1" as="geometry">
            <mxPoint x="310" y="3480" as="sourcePoint" />
            <mxPoint x="700" y="3480" as="targetPoint" />
          </mxGeometry>
        </mxCell>
        <mxCell id="x8-BClLYdTzJmzPqAORM-178" value="B 查询mysql" style="text;html=1;align=center;verticalAlign=middle;resizable=0;points=[];autosize=1;strokeColor=none;fillColor=none;" vertex="1" parent="1">
          <mxGeometry x="555" y="3450" width="90" height="30" as="geometry" />
        </mxCell>
        <mxCell id="x8-BClLYdTzJmzPqAORM-179" value="" style="endArrow=classic;html=1;rounded=0;fillColor=#d5e8d4;strokeColor=#82b366;" edge="1" parent="1">
          <mxGeometry width="50" height="50" relative="1" as="geometry">
            <mxPoint x="315" y="3540" as="sourcePoint" />
            <mxPoint x="495" y="3540" as="targetPoint" />
          </mxGeometry>
        </mxCell>
        <mxCell id="x8-BClLYdTzJmzPqAORM-180" value="B 再更新redis" style="text;html=1;align=center;verticalAlign=middle;resizable=0;points=[];autosize=1;strokeColor=none;fillColor=none;" vertex="1" parent="1">
          <mxGeometry x="370" y="3507" width="100" height="30" as="geometry" />
        </mxCell>
        <mxCell id="x8-BClLYdTzJmzPqAORM-181" value="" style="endArrow=classic;html=1;rounded=0;fillColor=#d5e8d4;strokeColor=#FF0000;" edge="1" parent="1">
          <mxGeometry width="50" height="50" relative="1" as="geometry">
            <mxPoint x="100" y="3860" as="sourcePoint" />
            <mxPoint x="490" y="3860" as="targetPoint" />
          </mxGeometry>
        </mxCell>
        <mxCell id="x8-BClLYdTzJmzPqAORM-182" value="A 又 删除了Redis" style="text;html=1;align=center;verticalAlign=middle;resizable=0;points=[];autosize=1;strokeColor=none;fillColor=none;" vertex="1" parent="1">
          <mxGeometry x="355" y="3830" width="120" height="30" as="geometry" />
        </mxCell>
        <mxCell id="x8-BClLYdTzJmzPqAORM-183" value="" style="endArrow=classic;html=1;rounded=0;fillColor=#d5e8d4;strokeColor=#FF0000;" edge="1" parent="1">
          <mxGeometry width="50" height="50" relative="1" as="geometry">
            <mxPoint x="305" y="3680" as="sourcePoint" />
            <mxPoint x="490" y="3680" as="targetPoint" />
          </mxGeometry>
        </mxCell>
        <mxCell id="x8-BClLYdTzJmzPqAORM-184" value="B 查询 redis 没有" style="text;html=1;align=center;verticalAlign=middle;resizable=0;points=[];autosize=1;strokeColor=none;fillColor=none;" vertex="1" parent="1">
          <mxGeometry x="359" y="3650" width="120" height="30" as="geometry" />
        </mxCell>
        <mxCell id="x8-BClLYdTzJmzPqAORM-185" value="" style="endArrow=classic;html=1;rounded=0;fillColor=#d5e8d4;strokeColor=#FF0000;" edge="1" parent="1">
          <mxGeometry width="50" height="50" relative="1" as="geometry">
            <mxPoint x="95" y="3810" as="sourcePoint" />
            <mxPoint x="710" y="3810" as="targetPoint" />
          </mxGeometry>
        </mxCell>
        <mxCell id="x8-BClLYdTzJmzPqAORM-186" value="A 跟新了mysql=20" style="text;html=1;align=center;verticalAlign=middle;resizable=0;points=[];autosize=1;strokeColor=none;fillColor=none;" vertex="1" parent="1">
          <mxGeometry x="555" y="3780" width="120" height="30" as="geometry" />
        </mxCell>
        <mxCell id="x8-BClLYdTzJmzPqAORM-187" value="mysql" style="rounded=0;whiteSpace=wrap;html=1;" vertex="1" parent="1">
          <mxGeometry x="645" y="3190" width="120" height="60" as="geometry" />
        </mxCell>
        <mxCell id="x8-BClLYdTzJmzPqAORM-188" value="" style="endArrow=classic;html=1;rounded=0;fillColor=#d5e8d4;strokeColor=#FF0000;" edge="1" parent="1">
          <mxGeometry width="50" height="50" relative="1" as="geometry">
            <mxPoint x="312.5" y="3720" as="sourcePoint" />
            <mxPoint x="707.5" y="3720" as="targetPoint" />
          </mxGeometry>
        </mxCell>
        <mxCell id="x8-BClLYdTzJmzPqAORM-189" value="B 查询了mysql=10" style="text;html=1;align=center;verticalAlign=middle;resizable=0;points=[];autosize=1;strokeColor=none;fillColor=none;" vertex="1" parent="1">
          <mxGeometry x="570" y="3690" width="120" height="30" as="geometry" />
        </mxCell>
        <mxCell id="x8-BClLYdTzJmzPqAORM-192" value="" style="endArrow=classic;html=1;rounded=0;fillColor=#d5e8d4;strokeColor=#82b366;" edge="1" parent="1">
          <mxGeometry width="50" height="50" relative="1" as="geometry">
            <mxPoint x="100" y="3300" as="sourcePoint" />
            <mxPoint x="490" y="3300" as="targetPoint" />
            <Array as="points">
              <mxPoint x="305" y="3300" />
            </Array>
          </mxGeometry>
        </mxCell>
        <mxCell id="x8-BClLYdTzJmzPqAORM-193" value="&lt;font style=&quot;color: rgb(255, 0, 0);&quot;&gt;A&amp;nbsp; 删除redis&lt;/font&gt;" style="text;html=1;align=center;verticalAlign=middle;resizable=0;points=[];autosize=1;strokeColor=none;fillColor=none;" vertex="1" parent="1">
          <mxGeometry x="350" y="3270" width="90" height="30" as="geometry" />
        </mxCell>
        <mxCell id="x8-BClLYdTzJmzPqAORM-194" value="" style="endArrow=classic;html=1;rounded=0;fillColor=#d5e8d4;strokeColor=#FF0000;" edge="1" parent="1">
          <mxGeometry width="50" height="50" relative="1" as="geometry">
            <mxPoint x="312.5" y="3770" as="sourcePoint" />
            <mxPoint x="497.5" y="3770" as="targetPoint" />
          </mxGeometry>
        </mxCell>
        <mxCell id="x8-BClLYdTzJmzPqAORM-195" value="&lt;span style=&quot;color: rgb(0, 0, 0); font-family: Helvetica; font-size: 12px; font-style: normal; font-variant-ligatures: normal; font-variant-caps: normal; font-weight: 400; letter-spacing: normal; orphans: 2; text-align: center; text-indent: 0px; text-transform: none; widows: 2; word-spacing: 0px; -webkit-text-stroke-width: 0px; white-space: nowrap; background-color: rgb(251, 251, 251); text-decoration-thickness: initial; text-decoration-style: initial; text-decoration-color: initial; float: none; display: inline !important;&quot;&gt;B 更新redis = 10&lt;/span&gt;" style="text;whiteSpace=wrap;html=1;" vertex="1" parent="1">
          <mxGeometry x="370" y="3740" width="130" height="40" as="geometry" />
        </mxCell>
        <mxCell id="x8-BClLYdTzJmzPqAORM-196" value="B 查询 redis 没有" style="text;html=1;align=center;verticalAlign=middle;resizable=0;points=[];autosize=1;strokeColor=none;fillColor=none;" vertex="1" parent="1">
          <mxGeometry x="365" y="3880" width="120" height="30" as="geometry" />
        </mxCell>
        <mxCell id="x8-BClLYdTzJmzPqAORM-197" value="" style="endArrow=classic;html=1;rounded=0;fillColor=#d5e8d4;strokeColor=#FF0000;" edge="1" parent="1">
          <mxGeometry width="50" height="50" relative="1" as="geometry">
            <mxPoint x="305" y="3910" as="sourcePoint" />
            <mxPoint x="490" y="3910" as="targetPoint" />
          </mxGeometry>
        </mxCell>
        <mxCell id="x8-BClLYdTzJmzPqAORM-199" value="" style="endArrow=classic;html=1;rounded=0;fillColor=#d5e8d4;strokeColor=#FF0000;" edge="1" parent="1">
          <mxGeometry width="50" height="50" relative="1" as="geometry">
            <mxPoint x="300" y="3940" as="sourcePoint" />
            <mxPoint x="700" y="3940" as="targetPoint" />
          </mxGeometry>
        </mxCell>
        <mxCell id="x8-BClLYdTzJmzPqAORM-200" value="&lt;span style=&quot;color: rgb(0, 0, 0); font-family: Helvetica; font-size: 12px; font-style: normal; font-variant-ligatures: normal; font-variant-caps: normal; font-weight: 400; letter-spacing: normal; orphans: 2; text-align: center; text-indent: 0px; text-transform: none; widows: 2; word-spacing: 0px; -webkit-text-stroke-width: 0px; white-space: nowrap; background-color: rgb(251, 251, 251); text-decoration-thickness: initial; text-decoration-style: initial; text-decoration-color: initial; float: none; display: inline !important;&quot;&gt;B 查询了mysql=20&lt;/span&gt;" style="text;whiteSpace=wrap;html=1;" vertex="1" parent="1">
          <mxGeometry x="565" y="3910" width="130" height="40" as="geometry" />
        </mxCell>
        <mxCell id="x8-BClLYdTzJmzPqAORM-201" value="" style="endArrow=classic;html=1;rounded=0;fillColor=#d5e8d4;strokeColor=#FF0000;" edge="1" parent="1">
          <mxGeometry width="50" height="50" relative="1" as="geometry">
            <mxPoint x="315" y="4000" as="sourcePoint" />
            <mxPoint x="500" y="4000" as="targetPoint" />
          </mxGeometry>
        </mxCell>
        <mxCell id="x8-BClLYdTzJmzPqAORM-202" value="B 跟新redis = 20" style="text;html=1;align=center;verticalAlign=middle;resizable=0;points=[];autosize=1;strokeColor=none;fillColor=none;" vertex="1" parent="1">
          <mxGeometry x="365" y="3968" width="110" height="30" as="geometry" />
        </mxCell>
        <mxCell id="x8-BClLYdTzJmzPqAORM-203" value="请求A" style="rounded=0;whiteSpace=wrap;html=1;" vertex="1" parent="1">
          <mxGeometry x="50" y="4110" width="120" height="60" as="geometry" />
        </mxCell>
        <mxCell id="x8-BClLYdTzJmzPqAORM-204" value="mysql" style="rounded=0;whiteSpace=wrap;html=1;" vertex="1" parent="1">
          <mxGeometry x="215" y="4110" width="120" height="60" as="geometry" />
        </mxCell>
        <mxCell id="x8-BClLYdTzJmzPqAORM-205" value="canal" style="rounded=0;whiteSpace=wrap;html=1;" vertex="1" parent="1">
          <mxGeometry x="364" y="4110" width="120" height="60" as="geometry" />
        </mxCell>
        <mxCell id="x8-BClLYdTzJmzPqAORM-208" value="" style="endArrow=classic;html=1;rounded=0;fillColor=#d5e8d4;strokeColor=#82b366;" edge="1" parent="1">
          <mxGeometry width="50" height="50" relative="1" as="geometry">
            <mxPoint x="95" y="4250" as="sourcePoint" />
            <mxPoint x="260" y="4250" as="targetPoint" />
          </mxGeometry>
        </mxCell>
        <mxCell id="x8-BClLYdTzJmzPqAORM-209" value="A 更新mysql = 20" style="text;html=1;align=center;verticalAlign=middle;resizable=0;points=[];autosize=1;strokeColor=#82b366;fillColor=#d5e8d4;" vertex="1" parent="1">
          <mxGeometry x="130" y="4210" width="120" height="30" as="geometry" />
        </mxCell>
        <mxCell id="x8-BClLYdTzJmzPqAORM-211" value="" style="endArrow=classic;html=1;rounded=0;fillColor=#d5e8d4;strokeColor=#82b366;" edge="1" parent="1">
          <mxGeometry width="50" height="50" relative="1" as="geometry">
            <mxPoint x="610" y="4400" as="sourcePoint" />
            <mxPoint x="740" y="4400" as="targetPoint" />
          </mxGeometry>
        </mxCell>
        <mxCell id="x8-BClLYdTzJmzPqAORM-216" value="redis" style="rounded=0;whiteSpace=wrap;html=1;" vertex="1" parent="1">
          <mxGeometry x="675" y="4110" width="120" height="60" as="geometry" />
        </mxCell>
        <mxCell id="x8-BClLYdTzJmzPqAORM-217" value="" style="endArrow=none;html=1;rounded=0;entryX=0.382;entryY=1.007;entryDx=0;entryDy=0;entryPerimeter=0;" edge="1" parent="1" target="x8-BClLYdTzJmzPqAORM-203">
          <mxGeometry width="50" height="50" relative="1" as="geometry">
            <mxPoint x="100" y="4701.111246744792" as="sourcePoint" />
            <mxPoint x="420" y="4100" as="targetPoint" />
          </mxGeometry>
        </mxCell>
        <mxCell id="x8-BClLYdTzJmzPqAORM-218" value="" style="endArrow=none;html=1;rounded=0;entryX=0.382;entryY=1.007;entryDx=0;entryDy=0;entryPerimeter=0;" edge="1" parent="1">
          <mxGeometry width="50" height="50" relative="1" as="geometry">
            <mxPoint x="264" y="4681.111246744792" as="sourcePoint" />
            <mxPoint x="260" y="4150" as="targetPoint" />
          </mxGeometry>
        </mxCell>
        <mxCell id="x8-BClLYdTzJmzPqAORM-219" value="" style="endArrow=none;html=1;rounded=0;entryX=0.382;entryY=1.007;entryDx=0;entryDy=0;entryPerimeter=0;" edge="1" parent="1">
          <mxGeometry width="50" height="50" relative="1" as="geometry">
            <mxPoint x="426" y="4690.551246744792" as="sourcePoint" />
            <mxPoint x="422" y="4159.44" as="targetPoint" />
          </mxGeometry>
        </mxCell>
        <mxCell id="x8-BClLYdTzJmzPqAORM-220" value="" style="endArrow=none;html=1;rounded=0;entryX=0.382;entryY=1.007;entryDx=0;entryDy=0;entryPerimeter=0;" edge="1" parent="1">
          <mxGeometry width="50" height="50" relative="1" as="geometry">
            <mxPoint x="742" y="4701.111246744792" as="sourcePoint" />
            <mxPoint x="738" y="4170" as="targetPoint" />
          </mxGeometry>
        </mxCell>
        <mxCell id="x8-BClLYdTzJmzPqAORM-221" value="" style="endArrow=none;html=1;rounded=0;entryX=0.382;entryY=1.007;entryDx=0;entryDy=0;entryPerimeter=0;" edge="1" parent="1">
          <mxGeometry width="50" height="50" relative="1" as="geometry">
            <mxPoint x="617" y="4690.551246744792" as="sourcePoint" />
            <mxPoint x="613" y="4159.44" as="targetPoint" />
          </mxGeometry>
        </mxCell>
        <mxCell id="x8-BClLYdTzJmzPqAORM-222" value="消息队列" style="rounded=0;whiteSpace=wrap;html=1;" vertex="1" parent="1">
          <mxGeometry x="565" y="4110" width="105" height="60" as="geometry" />
        </mxCell>
        <mxCell id="x8-BClLYdTzJmzPqAORM-223" value="" style="endArrow=classic;html=1;rounded=0;strokeColor=#99FF99;" edge="1" parent="1">
          <mxGeometry width="50" height="50" relative="1" as="geometry">
            <mxPoint x="415" y="4300" as="sourcePoint" />
            <mxPoint x="265" y="4300" as="targetPoint" />
          </mxGeometry>
        </mxCell>
        <mxCell id="x8-BClLYdTzJmzPqAORM-224" value="监听mysql 的binglog日志" style="text;html=1;align=center;verticalAlign=middle;resizable=0;points=[];autosize=1;strokeColor=#82b366;fillColor=#d5e8d4;" vertex="1" parent="1">
          <mxGeometry x="260" y="4260" width="160" height="30" as="geometry" />
        </mxCell>
        <mxCell id="x8-BClLYdTzJmzPqAORM-225" value="" style="endArrow=classic;html=1;rounded=0;fillColor=#d5e8d4;strokeColor=#82b366;" edge="1" parent="1">
          <mxGeometry width="50" height="50" relative="1" as="geometry">
            <mxPoint x="430" y="4340" as="sourcePoint" />
            <mxPoint x="610" y="4340" as="targetPoint" />
          </mxGeometry>
        </mxCell>
        <mxCell id="x8-BClLYdTzJmzPqAORM-226" value="将binglog的变化写入消息队列" style="text;html=1;align=center;verticalAlign=middle;resizable=0;points=[];autosize=1;strokeColor=#82b366;fillColor=#d5e8d4;" vertex="1" parent="1">
          <mxGeometry x="430" y="4290" width="180" height="30" as="geometry" />
        </mxCell>
        <mxCell id="x8-BClLYdTzJmzPqAORM-227" value="消息队列更新redis" style="text;html=1;align=center;verticalAlign=middle;resizable=0;points=[];autosize=1;strokeColor=#82b366;fillColor=#d5e8d4;" vertex="1" parent="1">
          <mxGeometry x="610" y="4360" width="120" height="30" as="geometry" />
        </mxCell>
      </root>
    </mxGraphModel>
  </diagram>
</mxfile>
